# xmcd CD database file
#
# Track frame offsets:
#	150
#	30734
#	58744
#	81721
#	121023
#	152710
#	199450
#	223254
#	246198
#	268930
#	287979
#	313286
#	324561
#
# Disc length: 4662 seconds
#
# Revision: 0
# Processed by: cddbd v1.5PL3 Copyright (c) Steve Scherf et al.
# Submitted via: CDex 1.51
#
DISCID=d512340d
DTITLE=The Mark Almond Band - Intro to Jazz Rock Fusion (Studio)
DYEAR=1900
DGENRE=Jazz
TTITLE0=New York State of Mind_Return to the City
TTITLE1=The Ghetto
TTITLE2=Lonely Girl
TTITLE3=Clowns
TTITLE4=Home to You
TTITLE5=The City
TTITLE6=What am I Living For
TTITLE7=Girl on Table Four
TTITLE8=Tramp and the Young Girl
TTITLE9=Friends
TTITLE10=One Way Sunday
TTITLE11=Organ Grinder
TTITLE12=The Little Prince
EXTD=
EXTT0=
EXTT1=
EXTT2=
EXTT3=
EXTT4=
EXTT5=
EXTT6=
EXTT7=
EXTT8=
EXTT9=
EXTT10=
EXTT11=
EXTT12=
PLAYORDER=
